<?xml version="1.0" encoding="utf-8"?>
<!-- Generator: Adobe Illustrator 16.0.0, SVG Export Plug-In . SVG Version: 6.00 Build 0)  -->
<!DOCTYPE svg PUBLIC "-//W3C//DTD SVG 1.1//EN" "http://www.w3.org/Graphics/SVG/1.1/DTD/svg11.dtd">
<svg version="1.1" id="Capa_1" xmlns="http://www.w3.org/2000/svg" xmlns:xlink="http://www.w3.org/1999/xlink" x="0px" y="0px"
	 width="3515.576px" height="670px" viewBox="0 0 3515.576 670" enable-background="new 0 0 3515.576 670" xml:space="preserve">
<g>
	<g>
		<g>
			<g>
				<g>
					<g>
						<g>
							<g>
								<g>
									<rect x="1783.637" y="76.486" width="13.395" height="533.43"/>
								</g>
							</g>
						</g>
					</g>
				</g>
			</g>
		</g>
		<g>
			<path d="M1955.201,116.592h-41.564V96.851h105.98v19.741h-41.559v161.569h-22.857V116.592z"/>
			<path d="M2037.301,218.415c0,30.655,11.943,44.939,36.107,44.939c10.907,0,22.858-5.453,30.391-10.91l1.037,19.741
				c-10.39,4.938-23.894,7.794-37.146,7.794c-35.07,0-53.247-26.494-53.247-68.055s18.177-68.058,51.172-68.058
				c29.868,0,46.493,23.899,46.493,62.862v11.687H2037.301z M2090.287,201.791c0-27.535-8.57-41.3-25.971-41.3
				c-14.027,0-26.501,10.391-27.016,41.3H2090.287z"/>
			<path d="M2214.221,168.803c-7.532-4.154-15.072-6.233-25.201-6.233c-21.299,0-36.362,14.807-36.362,50.653
				c0,30.651,14.542,48.053,35.847,48.053c10.391,0,19.223-3.117,26.754-7.014l1.038,20.002c-6.495,2.859-18.185,5.715-27.792,5.715
				c-39.483,0-58.705-29.353-58.705-66.756c0-42.86,22.335-69.357,59.221-69.357c9.092,0,19.222,1.818,26.238,5.195
				L2214.221,168.803z"/>
			<path d="M2234.502,174.256c0-9.607-0.782-19.219-1.044-28.572h21.044l0.775,19.741h0.522
				c7.01-15.064,18.186-21.559,33.511-21.559c23.118,0,38.699,13.247,38.699,42.342v91.954h-21.813v-85.459
				c0-21.04-7.794-30.132-21.82-30.132c-17.146,0-28.054,11.948-28.054,35.847v79.745h-21.82V174.256z"/>
			<path d="M2403.622,143.866c35.069,0,53.247,26.497,53.247,68.058s-18.178,68.055-53.247,68.055
				c-35.07,0-53.249-26.494-53.249-68.055S2368.552,143.866,2403.622,143.866z M2403.622,262.316
				c20.782,0,30.39-17.143,30.39-50.393c0-33.249-9.607-50.396-30.39-50.396s-30.39,17.147-30.39,50.396
				C2373.232,245.174,2382.84,262.316,2403.622,262.316z"/>
			<path d="M2481.316,83.343h21.82v194.818h-21.82V83.343z"/>
			<path d="M2580.81,143.866c35.071,0,53.248,26.497,53.248,68.058s-18.177,68.055-53.248,68.055
				c-35.07,0-53.247-26.494-53.247-68.055S2545.739,143.866,2580.81,143.866z M2580.81,262.316c20.783,0,30.39-17.143,30.39-50.393
				c0-33.249-9.606-50.396-30.39-50.396c-20.782,0-30.391,17.147-30.391,50.396C2550.419,245.174,2560.027,262.316,2580.81,262.316z
				"/>
			<path d="M2751.751,283.875c0,36.627-27.532,51.953-56.63,51.953c-11.168,0-29.091-4.158-38.699-8.054l1.037-22.079
				c9.349,6.233,24.42,11.429,36.363,11.429c26.755,0,37.146-15.845,37.146-38.702V257.64h-0.515
				c-8.577,15.068-20.261,22.339-34.809,22.339c-27.278,0-45.717-22.339-45.717-68.055c0-45.719,18.438-68.058,48.053-68.058
				c13.25,0,25.195,8.312,32.473,21.041h0.515l0.784-19.223h21.037c-0.262,7.793-1.038,16.105-1.038,24.157V283.875z
				 M2700.838,262.316c20.001,0,29.093-17.143,29.093-50.393c0-33.249-9.092-50.396-29.093-50.396
				c-19.997,0-29.09,17.147-29.09,50.396C2671.748,245.174,2680.841,262.316,2700.838,262.316z"/>
			<path d="M2795.936,89.838h25.717l-26.494,37.665h-16.623L2795.936,89.838z M2780.609,145.684h21.821v132.478h-21.821V145.684z"/>
			<path d="M2838.546,154.776c10.907-7.013,24.409-10.91,37.399-10.91c19.483,0,31.174,8.312,35.332,12.47
				c5.711,5.714,11.429,13.766,11.429,32.469v69.097c0,7.793,0.516,15.583,1.038,20.26h-19.746l-1.299-17.923h-0.514
				c-5.98,10.13-16.888,19.741-37.146,19.741c-21.82,0-38.184-12.728-38.184-38.184c0-25.717,16.877-44.678,62.341-44.678h12.728
				v-5.976c0-9.869-0.777-15.586-4.936-21.301c-4.419-5.973-12.988-8.313-22.08-8.313c-13.505,0-26.494,5.457-34.027,13.769
				L2838.546,154.776z M2901.924,213.223c-3.897-0.522-9.354-0.522-15.327-0.522c-25.716,0-37.922,12.209-37.922,27.535
				c0,14.026,7.272,23.119,22.336,23.119c18.961,0,30.913-15.326,30.913-33.507V213.223z"/>
			<path d="M1922.729,435.377c0-8.052-0.777-16.364-1.037-24.419h21.043l0.777,19.483h0.521c5.711-10.39,15.58-21.302,34.802-21.302
				c27.277,0,45.724,22.339,45.724,68.059c0,45.715-18.446,68.056-45.724,68.056c-15.063,0-24.934-5.977-33.764-20.003h-0.522
				v74.292h-21.82V435.377z M1973.64,527.592c20.007,0,29.099-17.145,29.099-50.394s-9.092-50.395-29.099-50.395
				c-19.999,0-29.091,17.146-29.091,50.395S1953.641,527.592,1973.64,527.592z"/>
			<path d="M2050.559,420.052c10.905-7.016,24.411-10.912,37.4-10.912c19.483,0,31.173,8.313,35.33,12.47
				c5.711,5.716,11.43,13.768,11.43,32.471v69.096c0,7.793,0.515,15.584,1.037,20.26h-19.744l-1.299-17.924h-0.516
				c-5.979,10.13-16.886,19.742-37.146,19.742c-21.82,0-38.184-12.729-38.184-38.183c0-25.718,16.879-44.68,62.341-44.68h12.728
				v-5.975c0-9.869-0.776-15.587-4.935-21.301c-4.419-5.974-12.989-8.313-22.082-8.313c-13.504,0-26.493,5.455-34.025,13.768
				L2050.559,420.052z M2113.937,478.497c-3.897-0.521-9.354-0.521-15.325-0.521c-25.718,0-37.922,12.208-37.922,27.535
				c0,14.026,7.27,23.118,22.335,23.118c18.961,0,30.912-15.326,30.912-33.508V478.497z"/>
			<path d="M2161.234,439.53c0-9.607-0.783-19.218-1.045-28.572h21.044l0.775,20.783h0.523c7.01-16.106,18.185-22.602,37.661-22.602
				V430.7c-2.591-0.52-5.45-0.777-8.311-0.777c-16.884,0-28.828,14.545-28.828,43.38v70.133h-21.82V439.53z"/>
			<path d="M2238.914,420.052c10.906-7.016,24.41-10.912,37.399-10.912c19.483,0,31.175,8.313,35.332,12.47
				c5.712,5.716,11.43,13.768,11.43,32.471v69.096c0,7.793,0.515,15.584,1.037,20.26h-19.744l-1.299-17.924h-0.517
				c-5.979,10.13-16.885,19.742-37.145,19.742c-21.82,0-38.184-12.729-38.184-38.183c0-25.718,16.879-44.68,62.34-44.68h12.727
				v-5.975c0-9.869-0.774-15.587-4.934-21.301c-4.418-5.974-12.988-8.313-22.081-8.313c-13.504,0-26.493,5.455-34.026,13.768
				L2238.914,420.052z M2302.291,478.497c-3.895-0.521-9.352-0.521-15.324-0.521c-25.717,0-37.922,12.208-37.922,27.535
				c0,14.026,7.271,23.118,22.335,23.118c18.962,0,30.911-15.326,30.911-33.508V478.497z"/>
			<path d="M2426.747,362.126h35.333l45.454,144.165h0.522l46.492-144.165h34.294v181.31h-21.821V387.062h-0.521l-51.434,156.374
				h-16.625l-49.351-156.374h-0.522v156.374h-21.821V362.126z"/>
			<path d="M2673.309,409.14c35.07,0,53.248,26.498,53.248,68.059c0,41.562-18.178,68.056-53.248,68.056
				c-35.071,0-53.248-26.494-53.248-68.056C2620.061,435.638,2638.237,409.14,2673.309,409.14z M2673.309,527.592
				c20.783,0,30.39-17.145,30.39-50.394s-9.606-50.395-30.39-50.395s-30.391,17.146-30.391,50.395
				S2652.525,527.592,2673.309,527.592z"/>
			<path d="M2740.09,410.958h23.896l29.099,110.659h0.515l29.613-110.659h22.858l-39.743,132.478h-25.972L2740.09,410.958z"/>
			<path d="M2891.031,356.407v25.978h-23.895v-25.978H2891.031z M2868.174,410.958h21.82v132.478h-21.82V410.958z"/>
			<path d="M2927.662,348.617h21.82v194.818h-21.82V348.617z"/>
			<path d="M3010.017,356.407v25.978h-23.897v-25.978H3010.017z M2987.158,410.958h21.82v132.478h-21.82V410.958z"/>
			<path d="M3139.906,519.017c0,8.056,0.776,16.368,1.038,24.419h-21.036l-0.784-19.483h-0.516
				c-5.718,10.392-15.587,21.302-34.809,21.302c-27.277,0-45.716-22.341-45.716-68.056c0-45.72,18.438-68.059,45.716-68.059
				c15.064,0,24.934,5.975,33.771,20.003h0.516v-80.525h21.82V519.017z M3088.994,426.804c-19.997,0-29.09,17.146-29.09,50.395
				s9.093,50.394,29.09,50.394c20,0,29.092-17.145,29.092-50.394S3108.994,426.804,3088.994,426.804z"/>
			<path d="M3176.559,420.052c10.906-7.016,24.41-10.912,37.399-10.912c19.484,0,31.175,8.313,35.332,12.47
				c5.711,5.716,11.429,13.768,11.429,32.471v69.096c0,7.793,0.516,15.584,1.038,20.26h-19.745l-1.298-17.924h-0.517
				c-5.979,10.13-16.885,19.742-37.145,19.742c-21.821,0-38.184-12.729-38.184-38.183c0-25.718,16.879-44.68,62.34-44.68h12.729
				v-5.975c0-9.869-0.777-15.587-4.936-21.301c-4.419-5.974-12.988-8.313-22.081-8.313c-13.504,0-26.493,5.455-34.024,13.768
				L3176.559,420.052z M3239.938,478.497c-3.897-0.521-9.354-0.521-15.327-0.521c-25.716,0-37.922,12.208-37.922,27.535
				c0,14.026,7.271,23.118,22.336,23.118c18.961,0,30.913-15.326,30.913-33.508V478.497z"/>
			<path d="M3388.797,519.017c0,8.056,0.775,16.368,1.036,24.419h-21.036l-0.783-19.483h-0.516
				c-5.718,10.392-15.587,21.302-34.81,21.302c-27.276,0-45.715-22.341-45.715-68.056c0-45.72,18.438-68.059,45.715-68.059
				c15.065,0,24.933,5.975,33.772,20.003h0.515v-80.525h21.821V519.017z M3337.885,426.804c-19.999,0-29.091,17.146-29.091,50.395
				s9.092,50.394,29.091,50.394c19.998,0,29.091-17.145,29.091-50.394S3357.883,426.804,3337.885,426.804z"/>
		</g>
	</g>
	<g>
		<g>
			<path d="M535.437,520.169l-3.388-9.245l-122.33-333.682l-3.875-10.565c-4.6-12.54-19.556-22.814-33.234-22.814h-34.672
				c-13.693,0-29.954,10.304-36.137,22.895l-6.662,13.555L182.911,408.665l-54.757,111.431c-6.183,12.597-0.058,22.9,13.613,22.9
				h35.731c13.686,0,29.795-10.362,35.803-23.047l3.606-7.611l100.851-212.708l18.657-39.344
				c6.008-12.677,14.556-12.721,18.989-0.102l10.428,29.606l10.609,30.158h-17.038c0.014,0.008,0.028,0.022,0.043,0.029h-10.231
				c-5.798,0-12.503,4.31-14.905,9.579l-24.89,54.546c-2.409,5.269,0.363,9.58,6.154,9.58h75.786c0.233,0,0.45,0.007,0.683,0.013
				c0-0.013-0.008-0.027-0.015-0.044h10.305c0.726,2.055,1.531,4.333,2.365,6.714l5.508,15.688l34.672,98.782l1.835,5.216
				c4.427,12.62,19.251,22.945,32.929,22.945h39.287C532.614,542.996,540.045,532.723,535.437,520.169z"/>
			<path d="M776.809,143.949h-0.464c-0.305-0.015-0.58-0.087-0.885-0.087h-25.368h-216.65H519.8c-0.305,0-0.595,0.072-0.9,0.087
				h-3.135c-13.962,0-26.167,11.422-27.11,25.397l-1.597,23.845c-0.914,13.977,9.739,25.412,23.715,25.412h88.34h2.206
				l-4.426,66.041L583.12,490.468l-1.859,27.655c-0.914,13.684,9.536,24.873,23.207,24.873h32.872
				c13.671,0,25.63-11.189,26.543-24.873l2.889-43.285l12.394-184.939l4.759-71.295h24.557c0.028,0.007,0.043,0.015,0.058,0.029
				c0.117,0,0.218-0.029,0.334-0.029c0,0,64.946,0.145,65.41-0.261c12.901-1.249,23.758-12.018,24.643-25.151l1.597-23.845
				C801.452,155.371,790.8,143.949,776.809,143.949z"/>
		</g>
		<path d="M1653.383,520.096l-39.838-111.431l-81.635-228.354l-4.848-13.555c-4.499-12.59-19.383-22.895-33.062-22.895h-34.67
			c-13.687,0-30.028,10.274-36.298,22.814l-5.297,10.565l-167.022,333.682l-4.629,9.245c-6.285,12.554-0.232,22.827,13.453,22.827
			h39.286c13.686,0,29.89-10.325,36.015-22.945l2.532-5.216l47.907-98.782l7.604-15.688c1.154-2.381,2.271-4.659,3.259-6.714h11.188
			c-0.007,0.017-0.007,0.031-0.007,0.044c0.225-0.006,0.449-0.013,0.675-0.013h75.787c5.799,0,8.569-4.312,6.16-9.58l-17.524-54.546
			c-2.402-5.269-9.106-9.579-14.904-9.579h-12.271l-0.015-0.029h-11.494c-0.624-0.007-1.118-0.21-1.677-0.326l14.49-29.832
			l14.384-29.606c6.132-12.619,14.68-12.575,18.989,0.102l13.389,39.344l72.354,212.708l2.591,7.611
			c4.31,12.685,19.032,23.047,32.72,23.047h35.723C1650.379,542.996,1657.889,532.692,1653.383,520.096z"/>
	</g>
	<g>
		<path fill="#E63C2F" d="M1234.142,212.646l12.306-24.824c2.656-5.41,2.163-10.75,0-15.489l-12.306-24.828
			c-1.554-3.12-5.675-5.671-9.159-5.671h-40.723c0-0.011,0-0.025,0.016-0.036H986.536c0.007,0.029,0.007,0.054,0.007,0.083h-41.979
			c-60.635,0-113.113,47.465-119.455,108.092l-1.554,14.971c-3.236,30.716,5.965,59.814,25.877,81.932
			c19.795,21.98,47.53,34.084,78.08,34.084h182.078c8.621,0,16.197,3.135,21.307,8.823c5.253,5.821,7.633,13.941,6.689,22.901
			l-1.554,14.948c-2.248,21.493-22.16,39.643-43.48,39.643H768.319c-0.015,0.037-0.029,0.079-0.044,0.115l-27.415-0.015
			c-14.165,0-26.515,11.583-27.473,25.739l-1.611,24.165c-0.871,13.163,8.432,23.961,21.117,25.434
			c-0.029,0.036-0.116,0.079-0.146,0.108c3.499,0.348,15.572,0.835,19.158,0.835h340.646c60.621,0,113.085-47.464,119.457-108.1
			l1.537-14.948c3.237-30.725-5.964-59.822-25.891-81.94c-19.795-21.987-47.515-34.091-78.065-34.091H927.512
			c-8.622,0-16.197-3.134-21.32-8.817c-5.239-5.827-7.619-13.939-6.675-22.887l1.552-14.97
			c2.264-21.493,22.176-39.642,43.495-39.642h41.979c0,0.029,0,0.062-0.007,0.091h197.739c-0.016-0.007-0.016-0.022-0.016-0.029
			h40.723C1228.467,218.324,1232.588,215.774,1234.142,212.646z"/>
		<path fill="#E63C2F" d="M1353.48,169.764l-42.748-85.104c-2.067-4.154-7.575-7.558-12.242-7.558h-62.317
			c-4.651,0-6.771,3.411-4.696,7.572l42.662,86.199c2.568,6.168,2.684,12.858,0,18.407l-42.713,86.199
			c-2.074,4.161,0.044,7.572,4.695,7.572h62.318c4.667,0,10.175-3.4,12.242-7.558l42.799-85.107
			C1356.5,183.41,1356.5,175.859,1353.48,169.764z"/>
	</g>
</g>
</svg>
